<svg id="svg" xmlns="http://www.w3.org/2000/svg" xmlns:xlink="http://www.w3.org/1999/xlink" width="120" height="110" viewBox="0, 0, 400,379.6733212341198"><g id="svgg"><path id="path0" d="M185.926 16.322 C 115.294 32.323,116.605 132.577,187.611 145.154 C 239.752 154.389,280.623 99.818,257.449 51.906 C 244.677 25.499,213.621 10.048,185.926 16.322 M206.171 29.811 C 238.511 35.035,257.832 67.306,246.934 97.896 C 244.869 103.693,239.972 112.071,238.885 111.668 C 238.387 111.482,230.618 102.923,223.118 94.296 C 222.217 93.259,222.746 92.708,227.874 89.342 C 233.927 85.367,234.483 84.687,234.483 81.240 C 234.483 78.180,233.906 77.830,211.625 67.375 C 200.304 62.063,189.490 56.482,187.080 54.708 C 181.144 50.338,174.565 47.339,167.652 45.852 L 161.811 44.595 166.023 41.135 C 171.126 36.944,181.838 31.616,187.296 30.555 C 189.492 30.128,191.942 29.650,192.740 29.492 C 195.627 28.924,201.548 29.065,206.171 29.811 M213.793 40.030 C 207.806 43.566,209.918 52.995,216.697 52.995 C 220.825 52.995,223.536 50.362,223.570 46.320 C 223.613 41.364,217.832 37.645,213.793 40.030 M190.345 40.799 C 187.927 43.216,189.810 47.913,193.197 47.913 C 195.725 47.913,197.459 46.179,197.459 43.651 C 197.459 41.063,196.241 39.927,193.466 39.927 C 192.229 39.927,190.824 40.319,190.345 40.799 M164.308 56.249 C 170.604 57.583,176.383 60.226,181.301 64.019 C 183.424 65.658,192.416 70.403,201.282 74.565 C 210.148 78.727,217.513 82.244,217.650 82.381 C 217.786 82.517,215.953 83.949,213.577 85.563 C 205.727 90.893,205.898 91.481,219.860 107.192 L 231.371 120.145 228.027 122.565 C 186.155 152.867,131.004 106.768,152.089 59.092 C 154.096 54.553,155.149 54.308,164.308 56.249 M176.746 77.675 C 172.952 79.553,171.325 82.369,171.325 87.056 C 171.325 96.034,182.606 100.222,188.834 93.556 C 196.618 85.223,187.007 72.596,176.746 77.675 M117.025 188.929 C 117.316 213.567,119.009 216.647,132.784 217.591 L 138.657 217.993 138.657 214.260 L 138.657 210.526 135.367 210.526 C 126.832 210.526,124.138 207.280,124.138 196.998 L 124.138 189.474 131.397 189.474 L 138.657 189.474 138.657 185.844 L 138.657 182.214 131.397 182.214 L 124.138 182.214 124.138 176.407 L 124.138 170.599 120.473 170.599 L 116.809 170.599 117.025 188.929 M145.666 171.926 C 143.021 174.849,144.890 179.310,148.760 179.310 C 152.720 179.310,154.536 174.863,151.724 172.051 C 149.912 170.239,147.243 170.184,145.666 171.926 M196.733 194.192 L 196.733 217.786 200.363 217.786 L 203.993 217.786 203.993 194.192 L 203.993 170.599 200.363 170.599 L 196.733 170.599 196.733 194.192 M249.728 194.192 L 249.728 217.786 260.463 217.786 C 277.710 217.786,281.307 214.717,281.307 200.000 C 281.307 187.209,277.084 182.214,266.271 182.214 L 261.343 182.214 261.343 185.844 L 261.343 189.474 265.517 189.497 C 271.689 189.531,274.410 192.733,274.410 199.962 C 274.410 208.066,271.697 210.526,262.761 210.526 L 256.987 210.526 256.987 190.563 L 256.987 170.599 253.358 170.599 L 249.728 170.599 249.728 194.192 M2.904 200.000 L 2.904 217.786 6.534 217.786 L 10.163 217.786 10.163 205.760 C 10.163 191.280,10.760 189.496,15.608 189.496 C 20.456 189.496,21.053 191.280,21.053 205.760 L 21.053 217.786 24.682 217.786 L 28.312 217.786 28.312 204.760 C 28.312 190.322,28.603 189.474,33.555 189.474 C 37.994 189.474,38.475 191.002,38.475 205.082 L 38.475 217.786 42.160 217.786 L 45.844 217.786 45.608 203.318 C 45.345 187.164,45.058 186.171,39.876 183.446 C 36.641 181.745,28.380 181.997,26.322 183.859 C 25.027 185.031,24.796 185.020,22.123 183.657 C 19.067 182.099,13.828 181.756,11.568 182.966 C 10.600 183.484,10.163 183.484,10.163 182.966 C 10.163 182.548,8.552 182.214,6.534 182.214 L 2.904 182.214 2.904 200.000 M52.995 185.781 L 52.995 189.474 63.158 189.474 C 76.600 189.474,76.225 189.130,76.225 201.452 L 76.225 210.526 67.893 210.526 C 59.940 210.526,59.511 210.449,58.439 208.814 C 56.036 205.146,58.880 203.267,66.835 203.267 L 71.869 203.267 71.869 200.000 L 71.869 196.733 64.428 196.744 C 53.507 196.760,50.672 198.812,50.672 206.700 C 50.672 216.321,53.379 217.786,71.158 217.786 L 83.485 217.786 83.469 204.537 C 83.443 183.480,82.791 182.704,64.826 182.333 L 52.995 182.089 52.995 185.781 M99.205 183.273 C 91.673 185.959,90.055 189.903,90.034 205.626 L 90.018 217.786 93.648 217.786 L 97.278 217.786 97.278 206.861 C 97.278 191.947,98.770 189.474,107.768 189.474 L 111.797 189.474 111.797 185.844 L 111.797 182.214 106.897 182.246 C 104.201 182.264,100.740 182.726,99.205 183.273 M145.191 200.000 L 145.191 217.786 148.820 217.786 L 152.450 217.786 152.450 200.000 L 152.450 182.214 148.820 182.214 L 145.191 182.214 145.191 200.000 M162.842 183.277 C 157.803 185.468,156.301 195.972,160.375 200.533 L 162.493 202.904 171.882 203.267 C 181.621 203.643,183.666 204.280,183.666 206.934 C 183.666 210.028,181.947 210.526,171.273 210.526 L 161.162 210.526 161.162 214.156 L 161.162 217.786 172.232 217.785 C 187.938 217.783,191.454 215.553,190.685 206.081 C 190.045 198.195,188.671 197.308,176.260 196.770 C 166.430 196.344,165.336 195.938,165.336 192.712 C 165.336 189.794,166.438 189.497,177.314 189.485 L 187.296 189.474 187.296 185.844 L 187.296 182.214 176.225 182.243 C 168.443 182.263,164.467 182.570,162.842 183.277 M211.978 185.795 L 211.978 189.474 222.142 189.474 C 235.584 189.474,235.209 189.130,235.209 201.452 L 235.209 210.526 227.538 210.526 C 218.709 210.526,217.060 209.948,217.060 206.853 C 217.060 204.040,219.026 203.267,226.182 203.267 L 231.579 203.267 231.579 200.000 L 231.579 196.733 223.920 196.733 C 212.234 196.733,209.363 199.058,209.936 208.058 C 210.478 216.560,213.020 217.786,230.104 217.786 L 242.468 217.786 242.467 204.174 C 242.465 183.342,241.915 182.695,223.906 182.347 L 211.978 182.116 211.978 185.795 M308.300 183.266 C 294.521 188.180,296.200 213.849,310.516 217.153 C 325.642 220.644,335.496 208.503,330.760 192.211 C 328.325 183.836,318.110 179.768,308.300 183.266 M346.642 183.305 C 339.388 185.870,337.578 190.469,337.572 206.352 L 337.568 217.786 340.109 217.786 L 342.650 217.786 342.651 206.715 C 342.652 191.169,344.487 188.027,353.910 187.427 L 358.621 187.127 358.621 184.670 L 358.621 182.214 354.083 182.246 C 351.588 182.264,348.240 182.740,346.642 183.305 M371.594 183.350 C 363.598 185.812,359.930 194.912,362.336 206.316 C 363.940 213.915,370.293 217.786,381.161 217.786 L 385.481 217.786 385.481 215.340 L 385.481 212.895 380.117 212.551 C 370.597 211.940,366.138 207.255,366.858 198.618 C 367.539 190.439,371.056 187.754,381.539 187.411 L 389.111 187.164 389.111 206.160 L 389.111 225.157 386.989 227.279 C 384.888 229.380,384.783 229.401,376.462 229.401 L 368.058 229.401 368.058 231.942 L 368.058 234.483 376.755 234.483 C 394.142 234.483,394.154 234.460,394.176 204.174 L 394.192 182.214 384.574 182.265 C 378.441 182.297,373.737 182.690,371.594 183.350 M320.424 188.303 C 328.660 191.744,328.865 207.562,320.721 211.258 C 311.991 215.220,304.234 209.924,304.190 199.972 C 304.149 190.428,312.001 184.783,320.424 188.303 M286.440 210.215 C 283.743 212.912,285.774 217.786,289.595 217.786 C 293.555 217.786,295.371 213.338,292.559 210.526 C 290.819 208.786,288.012 208.644,286.440 210.215 " stroke="none" fill="#000000" fill-rule="evenodd"></path></g></svg>