<svg id="svg" xmlns="http://www.w3.org/2000/svg" xmlns:xlink="http://www.w3.org/1999/xlink" width="400" height="387.09677419354836" viewBox="0, 0, 400,387.09677419354836"><g id="svgg"><path id="path0" d="M181.093 30.730 C 71.293 41.560,2.114 159.080,44.874 262.136 C 85.013 358.876,205.044 394.689,292.997 336.167 C 377.194 280.144,391.400 158.671,322.562 83.351 C 287.770 45.283,234.487 25.464,181.093 30.730 M240.410 72.524 C 322.913 100.165,356.786 197.868,308.886 270.032 L 302.989 278.916 281.333 254.588 C 269.423 241.207,259.708 229.802,259.746 229.243 C 259.784 228.683,266.496 223.871,274.662 218.548 C 304.661 198.994,302.909 196.693,232.929 163.768 C 202.693 149.542,175.681 135.975,172.902 133.617 C 158.766 121.625,139.026 112.488,117.875 108.144 L 104.298 105.356 115.312 96.271 C 150.613 67.153,197.699 58.214,240.410 72.524 M178.942 94.910 C 174.799 98.265,173.969 106.326,177.348 110.398 C 180.623 114.344,191.217 113.668,194.263 109.319 C 201.428 99.090,188.636 87.060,178.942 94.910 M237.274 94.186 C 227.961 99.348,226.112 113.457,233.747 121.092 C 247.745 135.090,270.634 117.458,261.243 99.911 C 257.507 92.931,244.950 89.932,237.274 94.186 M112.097 134.676 C 125.513 137.483,146.287 147.427,156.579 155.968 C 161.165 159.774,180.220 169.670,206.850 182.076 L 249.737 202.055 238.019 209.705 C 217.032 223.405,217.283 224.311,253.226 264.739 C 269.194 282.699,282.258 298.004,282.258 298.752 C 282.258 301.505,256.906 316.243,244.377 320.774 C 134.311 360.574,32.423 249.335,80.201 141.532 L 84.311 132.258 92.559 132.286 C 97.095 132.301,105.887 133.377,112.097 134.676 M142.287 189.779 C 130.755 195.463,125.547 212.329,131.469 224.809 C 139.989 242.763,167.363 243.355,177.229 225.800 C 189.790 203.451,165.452 178.362,142.287 189.779 " stroke="none" fill="#000000" fill-rule="evenodd"></path></g></svg>