<svg id="svg" xmlns="http://www.w3.org/2000/svg" xmlns:xlink="http://www.w3.org/1999/xlink" width="150" height="60" viewBox="0, 0, 400,120.71428571428571"><g id="svgg"><path id="path0" d="M117.857 36.322 C 117.857 61.046,119.615 64.261,133.792 65.460 L 139.286 65.924 139.286 62.248 L 139.286 58.571 135.893 58.570 C 127.918 58.568,124.922 55.029,124.441 45.044 L 124.095 37.857 131.690 37.857 L 139.286 37.857 139.286 34.286 L 139.286 30.714 131.786 30.714 L 124.286 30.714 124.286 25.000 L 124.286 19.286 121.071 19.286 L 117.857 19.286 117.857 36.322 M146.250 20.057 C 144.660 20.983,144.580 25.192,146.122 26.735 C 148.339 28.951,152.379 27.719,153.165 24.586 C 154.158 20.627,149.976 17.887,146.250 20.057 M196.429 42.500 L 196.429 65.714 200.000 65.714 L 203.571 65.714 203.571 42.500 L 203.571 19.286 200.000 19.286 L 196.429 19.286 196.429 42.500 M248.571 42.500 L 248.571 65.714 258.036 65.710 C 275.706 65.703,279.445 62.664,279.564 48.214 C 279.668 35.575,276.280 31.264,265.893 30.820 L 260.000 30.568 260.000 34.212 L 260.000 37.857 264.286 37.857 C 270.229 37.857,272.849 41.027,272.849 48.214 C 272.849 55.940,270.014 58.571,261.689 58.571 L 255.714 58.571 255.714 38.929 L 255.714 19.286 252.143 19.286 L 248.571 19.286 248.571 42.500 M5.714 48.222 L 5.714 65.714 9.286 65.714 L 12.857 65.714 12.857 53.293 C 12.857 38.221,13.730 36.388,20.107 38.065 C 22.964 38.816,23.571 41.677,23.571 54.392 L 23.571 65.714 26.727 65.714 L 29.882 65.714 30.120 53.288 C 30.388 39.226,30.863 37.857,35.468 37.857 C 40.291 37.857,40.714 39.097,40.714 53.214 L 40.714 65.714 44.339 65.714 L 47.964 65.714 47.732 51.479 C 47.473 35.577,47.178 34.559,42.092 31.965 C 38.693 30.232,31.772 30.293,28.839 32.081 C 26.758 33.350,26.525 33.362,25.421 32.257 C 24.459 31.295,22.494 31.039,14.975 30.900 L 5.714 30.730 5.714 48.222 M55.000 34.286 L 55.000 37.857 64.863 37.857 C 78.035 37.857,77.436 37.328,77.735 49.227 L 77.971 58.571 70.216 58.571 C 61.932 58.571,59.286 57.707,59.286 55.000 C 59.286 52.547,62.019 51.429,68.016 51.429 L 73.571 51.429 73.571 47.776 L 73.571 44.124 66.250 44.404 C 55.378 44.820,52.455 47.173,52.536 55.444 C 52.619 63.881,55.326 65.294,71.986 65.593 L 85.111 65.829 84.877 52.022 C 84.529 31.497,83.834 30.717,65.893 30.715 L 55.000 30.714 55.000 34.286 M100.183 31.512 C 93.549 33.428,91.471 38.498,90.922 54.107 L 90.514 65.714 94.186 65.714 L 97.857 65.714 97.874 56.607 C 97.903 41.092,99.689 37.857,108.226 37.857 L 112.857 37.857 112.857 34.286 L 112.857 30.714 107.679 30.779 C 104.830 30.814,101.457 31.144,100.183 31.512 M145.714 48.214 L 145.714 65.714 149.286 65.714 L 152.857 65.714 152.857 48.214 L 152.857 30.714 149.286 30.714 L 145.714 30.714 145.714 48.214 M162.926 31.618 C 159.622 33.316,158.304 36.012,158.304 41.071 C 158.304 49.532,160.947 51.403,172.925 51.418 C 181.569 51.429,183.571 52.126,183.571 55.124 C 183.571 57.957,181.366 58.571,171.194 58.571 L 161.429 58.571 161.429 62.206 L 161.429 65.840 172.679 65.591 C 188.085 65.250,191.766 62.687,190.467 53.209 C 189.508 46.213,187.109 44.840,175.129 44.434 C 166.816 44.153,166.289 44.047,165.591 42.516 C 163.773 38.525,165.381 37.857,176.811 37.857 L 187.143 37.857 187.143 34.286 L 187.143 30.714 175.893 30.725 C 168.387 30.732,164.072 31.029,162.926 31.618 M211.429 34.286 L 211.429 37.857 221.745 37.857 C 234.766 37.857,234.286 37.400,234.286 49.802 L 234.286 58.571 226.429 58.571 C 219.524 58.571,218.398 58.398,217.143 57.143 C 213.702 53.702,216.685 51.429,224.643 51.429 L 230.714 51.429 230.714 47.857 L 230.714 44.286 224.464 44.290 C 212.583 44.297,209.286 46.633,209.286 55.044 C 209.286 64.212,212.152 65.670,230.232 65.697 L 241.536 65.714 241.304 51.479 C 240.975 31.326,240.418 30.717,222.321 30.715 L 211.429 30.714 211.429 34.286 M305.879 31.609 C 295.027 35.088,293.805 57.749,304.161 63.462 C 313.641 68.691,326.445 63.888,328.494 54.334 C 332.157 37.255,321.541 26.588,305.879 31.609 M344.224 31.397 C 336.842 33.634,335.016 38.062,335.007 53.750 L 335.000 65.714 337.500 65.714 L 340.000 65.714 340.000 54.562 C 340.000 39.020,342.055 35.714,351.715 35.714 L 355.714 35.714 355.714 33.214 L 355.714 30.714 350.893 30.776 C 348.241 30.809,345.240 31.089,344.224 31.397 M368.214 31.587 C 362.182 33.726,359.246 38.227,358.730 46.128 C 357.892 58.942,362.813 64.439,376.031 65.455 L 382.143 65.925 382.143 63.423 L 382.143 60.920 376.765 60.514 C 367.990 59.850,363.550 55.595,363.587 47.884 C 363.629 39.188,368.010 35.714,378.933 35.714 L 385.781 35.714 385.569 54.624 C 385.305 78.211,386.129 76.674,373.554 77.024 L 365.000 77.262 365.000 79.773 L 365.000 82.283 374.497 82.034 C 390.663 81.611,390.291 82.282,390.573 53.069 L 390.789 30.714 380.573 30.771 C 374.954 30.802,369.393 31.169,368.214 31.587 M319.149 37.160 C 327.507 42.256,325.194 57.950,315.772 60.067 C 307.791 61.860,302.193 56.838,302.160 47.857 C 302.123 38.113,311.268 32.355,319.149 37.160 M284.821 57.914 C 283.231 58.840,283.151 63.049,284.694 64.592 C 286.910 66.808,290.950 65.576,291.736 62.443 C 292.730 58.484,288.547 55.744,284.821 57.914 " stroke="none" fill="#000000" fill-rule="evenodd"></path></g></svg>