<svg id="svg" xmlns="http://www.w3.org/2000/svg" xmlns:xlink="http://www.w3.org/1999/xlink" width="120" height="95" viewBox="0, 0, 400,449.4949494949495"><g id="svgg"><path id="path0" d="M178.788 12.588 C 112.085 26.884,80.910 101.636,117.666 159.148 C 146.163 203.738,209.562 215.400,253.402 184.116 C 313.204 141.442,303.017 47.105,235.540 18.713 C 219.058 11.778,194.789 9.159,178.788 12.588 M216.667 33.876 C 265.022 47.134,287.405 102.037,261.853 144.711 C 256.208 154.138,258.256 154.849,243.638 138.384 L 231.532 124.747 239.974 119.192 C 257.704 107.523,256.714 106.164,216.836 87.389 C 199.521 79.237,184.444 71.745,183.333 70.739 C 176.197 64.278,159.417 56.561,149.159 55.023 L 144.306 54.295 147.153 51.253 C 162.136 35.242,193.266 27.460,216.667 33.876 M185.510 48.312 C 181.830 52.378,184.431 58.586,189.815 58.586 C 195.325 58.586,197.852 52.398,193.939 48.485 C 191.418 45.964,187.704 45.888,185.510 48.312 M217.671 48.739 C 210.661 54.768,214.835 65.657,224.156 65.657 C 230.628 65.657,233.838 62.419,233.838 55.892 C 233.838 47.492,224.119 43.192,217.671 48.739 M155.195 72.799 C 158.608 74.050,164.517 77.262,168.327 79.938 C 174.964 84.600,184.787 89.710,212.879 103.116 L 225.758 109.261 223.259 110.944 C 207.457 121.582,207.466 121.638,228.653 145.455 L 245.277 164.141 242.588 166.419 C 232.477 174.983,213.324 181.272,197.475 181.232 C 143.237 181.095,106.655 124.525,129.340 75.869 L 132.350 69.414 140.670 69.969 C 145.478 70.291,151.609 71.485,155.195 72.799 M167.677 101.177 C 155.498 104.675,153.590 121.947,164.693 128.188 C 177.812 135.561,191.936 121.668,185.099 108.115 C 182.144 102.257,174.506 99.216,167.677 101.177 M42.424 254.433 L 42.424 280.584 28.283 298.847 C 11.879 320.033,12.725 318.183,19.444 318.178 L 24.747 318.175 35.301 304.478 C 41.105 296.945,46.121 290.616,46.448 290.414 C 46.775 290.212,52.026 296.357,58.117 304.068 L 69.192 318.089 74.495 318.136 C 81.402 318.196,81.974 319.416,65.149 298.213 L 50.505 279.759 50.505 254.021 L 50.505 228.283 46.465 228.283 L 42.424 228.283 42.424 254.433 M93.939 247.980 L 93.939 267.677 122.727 267.677 L 151.515 267.677 151.515 247.980 L 151.515 228.283 122.727 228.283 L 93.939 228.283 93.939 247.980 M194.949 231.818 L 194.949 235.354 181.313 235.354 L 167.677 235.354 167.677 244.444 L 167.677 253.535 172.222 253.535 L 176.768 253.535 176.768 248.990 L 176.768 244.444 198.990 244.444 L 221.212 244.444 221.212 248.990 L 221.212 253.535 225.758 253.535 L 230.303 253.535 230.303 244.444 L 230.303 235.354 216.667 235.354 L 203.030 235.354 203.030 231.818 C 203.030 228.367,202.934 228.283,198.990 228.283 C 195.046 228.283,194.949 228.367,194.949 231.818 M242.424 232.828 L 242.424 237.374 250.151 237.374 L 257.878 237.374 257.222 246.620 C 256.861 251.705,256.566 258.069,256.566 260.761 C 256.566 265.328,256.394 265.657,254.003 265.657 L 251.441 265.657 252.134 252.525 L 252.827 239.394 248.709 239.394 L 244.590 239.394 244.047 244.697 C 243.748 247.614,243.228 255.341,242.891 261.869 L 242.278 273.737 251.442 273.737 L 260.606 273.737 260.606 279.137 L 260.606 284.536 251.515 287.264 L 242.424 289.993 242.424 294.491 C 242.424 296.966,242.538 298.990,242.677 298.990 C 242.816 298.990,246.566 297.860,251.010 296.480 C 255.455 295.099,259.432 293.963,259.848 293.955 C 260.265 293.946,260.606 297.348,260.606 301.515 L 260.606 309.091 254.040 309.091 L 247.475 309.091 247.475 313.636 L 247.475 318.182 276.768 318.182 L 306.061 318.182 306.061 313.636 C 306.061 309.115,306.042 309.091,302.525 309.091 C 298.304 309.091,298.383 310.558,301.525 290.573 C 304.830 269.560,304.920 270.707,299.968 270.707 C 295.198 270.707,295.606 269.814,293.285 285.354 L 291.476 297.475 290.036 284.091 L 288.597 270.707 284.197 270.707 C 281.778 270.707,279.804 271.048,279.812 271.465 C 279.820 271.881,280.723 279.949,281.818 289.394 C 282.914 298.838,283.816 306.878,283.824 307.259 C 283.832 307.641,285.316 308.136,287.121 308.360 C 288.927 308.584,285.745 308.840,280.051 308.929 L 269.697 309.091 269.819 291.667 L 269.942 274.242 271.783 289.394 C 272.795 297.727,273.649 305.341,273.680 306.313 C 273.726 307.729,274.651 308.081,278.329 308.081 L 282.920 308.081 282.382 304.798 C 281.687 300.559,278.788 274.317,278.788 272.271 C 278.788 271.091,277.672 270.707,274.242 270.707 C 270.370 270.707,269.697 270.408,269.697 268.687 C 269.697 266.744,270.370 266.667,287.374 266.667 L 305.051 266.667 305.051 262.121 L 305.051 257.576 286.869 257.576 L 268.687 257.576 268.687 261.616 C 268.687 265.046,268.367 265.657,266.567 265.657 C 264.593 265.657,264.488 265.258,265.029 259.848 C 266.702 243.130,266.916 230.071,265.532 229.195 C 264.767 228.710,259.255 228.307,253.283 228.298 L 242.424 228.283 242.424 232.828 M272.257 230.556 C 271.808 232.563,268.687 254.888,268.687 256.095 C 268.687 256.354,270.674 256.566,273.102 256.566 L 277.518 256.566 278.788 246.970 L 280.058 237.374 286.999 237.374 C 291.837 237.374,293.962 237.756,294.015 238.636 C 294.057 239.331,294.627 243.535,295.281 247.980 L 296.472 256.061 300.761 256.371 C 305.794 256.736,305.576 257.930,303.419 241.805 L 301.782 229.569 294.173 228.926 C 278.420 227.594,272.827 228.010,272.257 230.556 M345.455 231.818 L 345.455 235.354 332.323 235.354 L 319.192 235.354 319.192 243.939 L 319.192 252.525 323.232 252.525 L 327.273 252.525 327.273 248.485 L 327.273 244.444 350.000 244.444 L 372.727 244.444 372.727 248.485 L 372.727 252.525 376.768 252.525 L 380.808 252.525 380.808 243.939 L 380.808 235.354 367.677 235.354 L 354.545 235.354 354.545 231.818 C 354.545 228.302,354.521 228.283,350.000 228.283 C 345.479 228.283,345.455 228.302,345.455 231.818 M17.176 231.003 C 17.178 232.007,18.769 244.120,20.711 257.922 C 22.653 271.723,24.242 283.428,24.242 283.932 C 24.242 284.436,26.288 284.848,28.788 284.848 C 31.288 284.848,33.312 284.508,33.287 284.091 C 33.261 283.674,31.547 271.288,29.477 256.566 L 25.714 229.798 21.443 229.487 C 17.881 229.228,17.172 229.480,17.176 231.003 M65.738 253.788 C 63.899 267.260,62.160 279.760,61.873 281.566 L 61.352 284.848 65.823 284.848 L 70.295 284.848 73.592 260.859 C 75.405 247.664,77.147 235.164,77.462 233.081 L 78.036 229.293 73.559 229.293 L 69.082 229.293 65.738 253.788 M143.434 247.980 L 143.434 259.596 123.232 259.596 L 103.030 259.596 103.030 256.061 L 103.030 252.525 121.717 252.525 L 140.404 252.525 140.404 247.980 L 140.404 243.434 121.717 243.434 L 103.030 243.434 103.030 239.899 L 103.030 236.364 123.232 236.364 L 143.434 236.364 143.434 247.980 M203.030 267.172 L 203.030 282.828 185.354 282.828 L 167.677 282.828 167.677 287.374 L 167.677 291.919 181.396 291.919 L 195.115 291.919 181.143 303.639 C 161.940 319.748,163.059 318.184,170.743 318.169 L 177.273 318.156 193.167 305.038 L 209.062 291.919 219.682 291.919 L 230.303 291.919 230.303 287.374 L 230.303 282.828 220.707 282.828 L 211.111 282.828 211.111 267.172 L 211.111 251.515 207.071 251.515 L 203.030 251.515 203.030 267.172 M169.697 259.187 C 169.697 261.634,170.038 263.640,170.455 263.644 C 170.871 263.649,176.649 264.331,183.295 265.160 C 200.946 267.361,200.176 267.491,199.806 262.374 L 199.495 258.081 188.384 256.891 C 182.273 256.236,175.568 255.484,173.485 255.219 L 169.697 254.738 169.697 259.187 M319.192 260.101 C 319.192 264.622,319.211 264.646,322.727 264.646 C 327.061 264.646,327.095 264.046,322.222 273.737 C 316.801 284.519,316.155 283.838,331.818 283.838 L 345.455 283.838 345.455 287.879 L 345.455 291.919 332.323 291.919 L 319.192 291.919 319.192 295.960 L 319.192 300.000 332.323 300.000 L 345.455 300.000 345.455 304.545 L 345.455 309.091 332.323 309.091 L 319.192 309.091 319.192 313.636 L 319.192 318.182 350.000 318.182 L 380.808 318.182 380.808 313.636 L 380.808 309.091 367.677 309.091 L 354.545 309.091 354.545 304.545 L 354.545 300.000 367.677 300.000 L 380.808 300.000 380.808 295.960 L 380.808 291.919 367.677 291.919 L 354.545 291.919 354.545 287.879 L 354.545 283.838 367.677 283.838 C 374.899 283.838,380.808 283.563,380.808 283.227 C 380.808 282.891,379.644 278.800,378.222 274.136 L 375.635 265.657 371.043 265.657 C 367.082 265.657,366.545 265.900,367.134 267.424 C 367.511 268.396,368.071 270.442,368.379 271.970 L 368.939 274.747 350.109 274.747 L 331.279 274.747 333.838 269.697 L 336.398 264.646 358.603 264.646 L 380.808 264.646 380.808 260.101 L 380.808 255.556 350.000 255.556 L 319.192 255.556 319.192 260.101 M169.697 271.671 C 169.697 276.190,168.626 275.759,184.757 277.743 C 199.523 279.560,200.000 279.467,200.000 274.793 C 200.000 270.243,200.879 270.584,184.343 268.712 C 169.539 267.036,169.697 267.004,169.697 271.671 M94.884 275.505 C 93.646 279.255,92.424 282.891,92.168 283.586 C 91.811 284.555,94.776 284.848,104.942 284.848 L 118.182 284.848 118.182 288.384 L 118.182 291.919 105.051 291.919 L 91.919 291.919 91.919 296.465 L 91.919 301.010 105.051 301.010 L 118.182 301.010 118.182 305.051 L 118.182 309.091 105.051 309.091 L 91.919 309.091 91.919 313.636 L 91.919 318.182 122.727 318.182 L 153.535 318.182 153.535 313.636 L 153.535 309.091 140.404 309.091 L 127.273 309.091 127.273 305.051 L 127.273 301.010 140.404 301.010 L 153.535 301.010 153.535 296.465 L 153.535 291.919 140.404 291.919 L 127.273 291.919 127.273 288.384 L 127.273 284.848 140.404 284.848 L 153.535 284.848 153.535 280.808 L 153.535 276.768 140.404 276.768 L 127.273 276.768 127.273 272.727 L 127.273 268.687 122.727 268.687 L 118.182 268.687 118.182 272.727 L 118.182 276.768 111.507 276.768 C 104.298 276.768,104.224 276.669,106.669 270.296 C 107.184 268.955,106.439 268.687,102.211 268.687 L 97.134 268.687 94.884 275.505 M207.239 295.826 C 207.424 296.308,210.758 301.528,214.646 307.424 L 221.717 318.146 227.025 318.164 L 232.333 318.182 224.596 306.566 L 216.860 294.949 211.881 294.949 C 209.143 294.949,207.054 295.344,207.239 295.826 " stroke="none" fill="#000000" fill-rule="evenodd"></path></g></svg>