<svg id="svg" xmlns="http://www.w3.org/2000/svg" xmlns:xlink="http://www.w3.org/1999/xlink" width="150" height="60" viewBox="0, 0, 400,198.9795918367347"><g id="svgg"><path id="path0" d="M40.809 44.133 L 40.802 70.918 26.552 89.286 C 10.099 110.493,10.683 109.200,17.602 109.129 L 22.959 109.075 34.164 94.489 L 45.369 79.903 57.051 94.543 L 68.733 109.184 74.162 109.184 C 81.052 109.184,82.012 111.143,64.286 89.016 L 48.980 69.909 48.980 43.628 L 48.980 17.347 44.898 17.347 L 40.816 17.347 40.809 44.133 M92.857 37.755 L 92.857 58.163 121.939 58.163 L 151.020 58.163 151.020 37.755 L 151.020 17.347 121.939 17.347 L 92.857 17.347 92.857 37.755 M194.898 21.429 L 194.898 25.510 181.633 25.510 L 168.367 25.510 168.367 34.184 L 168.367 42.857 172.449 42.857 L 176.531 42.857 176.531 38.265 L 176.531 33.673 198.980 33.673 L 221.429 33.673 221.429 38.265 L 221.429 42.857 226.020 42.857 L 230.612 42.857 230.612 34.184 L 230.612 25.510 216.837 25.510 L 203.061 25.510 203.061 21.429 L 203.061 17.347 198.980 17.347 L 194.898 17.347 194.898 21.429 M346.939 21.429 L 346.939 25.510 333.673 25.510 L 320.408 25.510 320.408 34.184 L 320.408 42.857 325.000 42.857 L 329.592 42.857 329.592 38.265 L 329.592 33.673 352.041 33.673 L 374.490 33.673 374.490 38.265 L 374.490 42.857 378.571 42.857 L 382.653 42.857 382.653 34.184 L 382.653 25.510 369.388 25.510 L 356.122 25.510 356.122 21.429 L 356.122 17.347 351.531 17.347 L 346.939 17.347 346.939 21.429 M15.301 19.584 C 15.298 20.318,16.973 32.972,19.023 47.704 L 22.750 74.490 27.254 74.490 L 31.758 74.490 31.114 70.153 C 30.760 67.768,29.010 55.255,27.225 42.347 L 23.980 18.878 19.643 18.564 C 16.594 18.343,15.305 18.646,15.301 19.584 M67.897 19.643 C 67.674 20.344,66.068 31.480,64.328 44.388 C 62.589 57.296,60.898 69.349,60.571 71.173 L 59.977 74.490 64.682 74.490 C 67.270 74.490,69.388 74.073,69.388 73.564 C 69.388 73.054,70.993 61.230,72.955 47.288 C 77.404 15.678,77.454 18.367,72.417 18.367 C 70.023 18.367,68.134 18.901,67.897 19.643 M242.857 22.959 L 242.857 27.551 250.510 27.551 L 258.163 27.551 258.163 30.964 C 258.163 47.011,256.830 56.122,254.482 56.122 L 252.131 56.122 252.753 42.347 L 253.376 28.571 249.229 28.571 L 245.081 28.571 244.505 36.990 C 244.189 41.620,243.654 49.656,243.317 54.847 L 242.704 64.286 252.018 64.286 L 261.331 64.286 261.023 69.558 L 260.714 74.831 252.041 77.493 L 243.367 80.154 243.060 84.888 L 242.752 89.622 251.988 86.751 L 261.224 83.880 261.224 91.940 L 261.224 100.000 255.102 100.000 L 248.980 100.000 248.980 104.082 L 248.980 108.163 278.061 108.163 L 307.143 108.163 307.143 104.082 C 307.143 100.073,307.077 100.000,303.456 100.000 L 299.768 100.000 300.423 95.663 C 300.783 93.278,302.137 84.324,303.431 75.765 L 305.784 60.204 301.361 60.204 C 298.929 60.204,296.930 60.319,296.920 60.459 C 296.291 69.110,291.837 89.182,291.837 83.370 C 291.837 81.893,291.313 76.077,290.672 70.445 L 289.508 60.204 285.060 60.204 C 282.614 60.204,280.619 60.548,280.627 60.969 C 280.634 61.390,281.546 69.541,282.653 79.082 C 283.760 88.622,284.672 96.973,284.680 97.639 C 284.687 98.305,286.186 99.035,288.010 99.262 C 289.834 99.488,286.620 99.747,280.867 99.837 L 270.408 100.000 270.544 81.378 L 270.680 62.755 272.498 78.061 C 273.498 86.480,274.356 94.630,274.403 96.173 C 274.484 98.806,274.774 98.980,279.082 98.980 C 281.607 98.980,283.667 98.635,283.659 98.214 C 283.651 97.793,282.739 89.643,281.633 80.102 C 280.526 70.561,279.614 62.181,279.606 61.480 C 279.597 60.650,277.986 60.204,275.000 60.204 C 271.088 60.204,270.408 59.902,270.408 58.163 C 270.408 56.200,271.088 56.122,288.265 56.122 L 306.122 56.122 306.122 52.041 L 306.122 47.959 287.755 47.959 L 269.388 47.959 269.388 52.041 C 269.388 55.514,269.067 56.122,267.233 56.122 C 265.367 56.122,265.155 55.680,265.646 52.806 C 265.958 50.982,266.527 42.487,266.911 33.929 L 267.608 18.367 255.233 18.367 L 242.857 18.367 242.857 22.959 M273.035 20.663 C 272.774 21.926,272.061 26.862,271.450 31.633 C 270.839 36.403,270.088 41.569,269.782 43.112 C 269.240 45.846,269.346 45.918,273.899 45.918 C 276.916 45.918,278.599 45.466,278.648 44.643 C 278.690 43.941,279.267 39.694,279.929 35.204 L 281.133 27.041 288.015 26.739 C 293.097 26.516,294.918 26.783,294.975 27.760 C 295.017 28.487,295.592 32.755,296.254 37.245 L 297.456 45.408 301.789 45.722 C 306.939 46.095,306.783 47.001,304.430 30.357 L 302.734 18.367 288.121 18.367 C 273.788 18.367,273.499 18.411,273.035 20.663 M142.857 37.755 L 142.857 48.980 122.449 48.980 L 102.041 48.980 102.041 45.408 L 102.041 41.837 120.918 41.837 L 139.796 41.837 139.796 37.755 L 139.796 33.673 120.918 33.673 L 102.041 33.673 102.041 30.102 L 102.041 26.531 122.449 26.531 L 142.857 26.531 142.857 37.755 M203.061 57.653 L 203.061 73.469 185.204 73.469 L 167.347 73.469 167.347 77.522 L 167.347 81.575 181.321 81.859 L 195.294 82.143 179.546 95.408 L 163.798 108.673 170.124 108.976 L 176.450 109.279 193.217 95.456 L 209.984 81.633 220.298 81.633 L 230.612 81.633 230.612 77.551 L 230.612 73.469 220.918 73.469 L 211.224 73.469 211.224 57.653 L 211.224 41.837 207.143 41.837 L 203.061 41.837 203.061 57.653 M170.408 49.330 L 170.408 53.761 182.398 55.031 C 188.992 55.729,195.651 56.547,197.194 56.849 C 199.930 57.384,200.000 57.280,200.000 52.679 C 200.000 49.588,199.560 47.956,198.724 47.950 C 198.023 47.945,191.709 47.261,184.694 46.429 C 177.679 45.596,171.594 44.912,171.173 44.907 C 170.753 44.902,170.408 46.892,170.408 49.330 M320.408 50.000 L 320.408 54.082 324.500 54.082 L 328.592 54.082 323.990 63.245 C 321.459 68.285,319.388 72.647,319.388 72.939 C 319.388 73.231,325.587 73.469,333.163 73.469 L 346.939 73.469 346.939 77.551 L 346.939 81.633 333.673 81.633 L 320.408 81.633 320.408 86.224 L 320.408 90.816 333.673 90.816 L 346.939 90.816 346.939 95.408 L 346.939 100.000 333.673 100.000 L 320.408 100.000 320.408 104.082 L 320.408 108.163 351.531 108.163 L 382.653 108.163 382.653 104.082 L 382.653 100.000 369.388 100.000 L 356.122 100.000 356.122 95.408 L 356.122 90.816 369.388 90.816 L 382.653 90.816 382.653 86.224 L 382.653 81.633 369.388 81.633 L 356.122 81.633 356.122 77.551 L 356.122 73.469 369.388 73.469 C 376.684 73.469,382.644 73.125,382.634 72.704 C 382.623 72.283,381.556 68.495,380.262 64.286 L 377.910 56.633 373.649 56.319 C 368.983 55.975,368.733 56.404,370.337 61.997 L 371.286 65.306 351.981 65.306 L 332.675 65.306 335.428 59.694 L 338.180 54.082 360.417 54.082 L 382.653 54.082 382.653 50.000 L 382.653 45.918 351.531 45.918 L 320.408 45.918 320.408 50.000 M170.408 61.607 C 170.408 64.698,170.848 66.330,171.684 66.335 C 172.385 66.340,178.699 67.025,185.714 67.857 C 192.730 68.689,198.814 69.374,199.235 69.379 C 199.656 69.384,200.000 67.393,200.000 64.956 L 200.000 60.524 188.010 59.255 C 181.416 58.557,174.758 57.739,173.214 57.437 C 170.478 56.901,170.408 57.006,170.408 61.607 M93.811 66.071 C 92.561 69.860,91.327 73.533,91.068 74.235 C 90.707 75.216,93.804 75.510,104.483 75.510 L 118.367 75.510 118.367 79.082 L 118.367 82.653 104.592 82.653 L 90.816 82.653 90.816 86.735 L 90.816 90.816 104.592 90.816 L 118.367 90.816 118.367 95.408 L 118.367 100.000 104.592 100.000 L 90.816 100.000 90.816 104.082 L 90.816 108.163 121.939 108.163 L 153.061 108.163 153.061 104.082 L 153.061 100.000 139.796 100.000 L 126.531 100.000 126.531 95.408 L 126.531 90.816 139.796 90.816 L 153.061 90.816 153.061 86.735 L 153.061 82.653 139.796 82.653 L 126.531 82.653 126.531 79.082 L 126.531 75.510 139.796 75.510 L 153.061 75.510 153.061 70.918 L 153.061 66.327 139.796 66.327 L 126.531 66.327 126.531 62.755 C 126.531 59.269,126.433 59.184,122.449 59.184 C 118.465 59.184,118.367 59.269,118.367 62.755 L 118.367 66.327 111.115 66.327 C 105.738 66.327,103.987 65.997,104.343 65.051 C 106.570 59.124,106.602 59.184,101.172 59.184 L 96.085 59.184 93.811 66.071 M207.777 86.990 C 208.192 87.691,211.673 92.972,215.513 98.724 L 222.495 109.184 227.634 109.184 C 231.468 109.184,232.582 108.860,232.019 107.908 C 231.604 107.207,228.123 101.926,224.283 96.173 L 217.301 85.714 212.162 85.714 C 208.328 85.714,207.214 86.038,207.777 86.990 " stroke="none" fill="#000000" fill-rule="evenodd"></path></g></svg>